<svg xmlns="http://www.w3.org/2000/svg" width="88" height="91" fill="none">
  <symbol id="logo" viewBox="0 0 88 91">
    <path d="M19.9968 8.95629C35.8563 -2.61441 67.5469 -5.53432 85.2753 21.2479C85.8644 22.096 86.1426 22.6 86.1426 22.6C85.8574 22.1411 85.5682 21.6905 85.2753 21.2479C83.2561 18.341 77.5839 11.3918 66.939 6.83912C55.5591 1.97214 34.8691 1.30056 19.9968 17.66C7.80718 31.0686 3.73417 53.8866 19.9968 73.4113C32.088 87.9278 54.841 89.7821 67.6502 83.7618C79.8812 78.0132 85.1205 69.9522 86.005 68.4737C86.0511 68.3947 86.097 68.3154 86.1426 68.2361C86.1426 68.2361 86.0977 68.3187 86.005 68.4737C74.2894 88.5494 44.3204 99.0154 19.9968 81.8799C-3.71124 65.178 -6.25431 28.1084 19.9968 8.95629Z" 
    fill="#7BA376"/>
    <path d="M19.9968 8.95629L20.2915 9.36021L20.2915 9.36021L19.9968 8.95629ZM86.1426 22.6L85.7179 22.8639C85.861 23.0942 86.1615 23.1685 86.3954 23.0314C86.6293 22.8943 86.7113 22.5958 86.5803 22.3584L86.1426 22.6ZM86.1426 68.2361L86.582 68.4745C86.7126 68.2339 86.6254 67.933 86.3863 67.7995C86.1473 67.666 85.8453 67.7496 85.709 67.987L86.1426 68.2361ZM19.9968 81.8799L19.7089 82.2886L19.7089 82.2886L19.9968 81.8799ZM19.9968 17.66L20.3668 17.9964L20.3668 17.9964L19.9968 17.66ZM19.9968 73.4113L20.381 73.0913L20.381 73.0913L19.9968 73.4113ZM66.939 6.83912L67.1356 6.3794L67.1356 6.3794L66.939 6.83912ZM67.6502 83.7618L67.4375 83.3092L67.4375 83.3092L67.6502 83.7618ZM20.2915 9.36021C28.1208 3.64817 39.8859 0.05756 51.8871 1.21743C63.8699 2.37552 76.0837 8.26806 84.8583 21.5239L85.6922 20.9719C76.7384 7.44551 64.2427 1.40689 51.9833 0.222066C39.7422 -0.96099 27.7324 2.6937 19.7021 8.55236L20.2915 9.36021ZM84.8583 21.5239C85.1486 21.9624 85.4352 22.4091 85.7179 22.8639L86.5672 22.3361C86.2795 21.8732 85.9878 21.4185 85.6922 20.9719L84.8583 21.5239ZM85.709 67.987C85.664 68.0654 85.6187 68.1437 85.5731 68.2217L86.4368 68.7258C86.4835 68.6457 86.53 68.5654 86.5761 68.4851L85.709 67.987ZM85.5731 68.2217C73.9904 88.0697 44.3455 98.4214 20.2848 81.4711L19.7089 82.2886C44.2953 99.6093 74.5883 89.0291 86.4368 68.7258L85.5731 68.2217ZM20.2848 81.4711C-3.15737 64.9566 -5.66943 28.3006 20.2915 9.36021L19.7021 8.55236C-6.8392 27.9162 -4.26512 65.3994 19.7089 82.2886L20.2848 81.4711ZM19.6268 17.3237C7.28762 30.8968 3.17357 53.9948 19.6126 73.7313L20.381 73.0913C4.29476 53.7784 8.32674 31.2404 20.3668 17.9964L19.6268 17.3237ZM86.1426 22.6C86.5803 22.3584 86.5803 22.3584 86.5803 22.3583C86.5803 22.3583 86.5802 22.3583 86.5802 22.3582C86.5802 22.3582 86.5801 22.3581 86.5801 22.358C86.58 22.3578 86.5799 22.3576 86.5798 22.3574C86.5795 22.357 86.5792 22.3564 86.5788 22.3557C86.578 22.3543 86.577 22.3524 86.5756 22.35C86.573 22.3453 86.5692 22.3386 86.5644 22.33C86.5546 22.3129 86.5405 22.2881 86.5218 22.2561C86.4845 22.1921 86.4292 22.0991 86.3553 21.9794C86.2077 21.7401 85.9859 21.3945 85.6859 20.9626L84.8646 21.5331C85.1537 21.9494 85.3656 22.2798 85.5043 22.5046C85.5737 22.617 85.6247 22.7029 85.658 22.7599C85.6746 22.7884 85.6868 22.8097 85.6945 22.8234C85.6984 22.8303 85.7012 22.8352 85.7029 22.8383C85.7038 22.8398 85.7044 22.8409 85.7047 22.8414C85.7048 22.8417 85.7049 22.8418 85.7049 22.8419C85.705 22.8419 85.7049 22.8419 85.7049 22.8418C85.7049 22.8418 85.7049 22.8418 85.7049 22.8418C85.7049 22.8417 85.7048 22.8417 85.7048 22.8417C85.7048 22.8417 85.7048 22.8416 86.1426 22.6ZM85.6859 20.9626C83.6315 18.0051 77.8923 10.9798 67.1356 6.3794L66.7424 7.29884C77.2756 11.8037 82.8806 18.6769 84.8646 21.5331L85.6859 20.9626ZM67.1356 6.3794C55.6113 1.45067 34.6768 0.768818 19.6268 17.3237L20.3668 17.9964C35.0615 1.83231 55.5068 2.49361 66.7424 7.29884L67.1356 6.3794ZM19.6126 73.7313C25.7513 81.1013 34.5805 85.2398 43.4689 86.7805C52.352 88.3204 61.3496 87.2755 67.8629 84.2143L67.4375 83.3092C61.1417 86.2683 52.3581 87.3065 43.6397 85.7952C34.9264 84.2848 26.3335 80.2378 20.381 73.0913L19.6126 73.7313ZM67.8629 84.2143C80.21 78.4111 85.5157 70.2656 86.434 68.7304L85.5759 68.2171C84.7254 69.6388 79.5524 77.6153 67.4375 83.3092L67.8629 84.2143ZM86.434 68.7304C86.4823 68.6498 86.5185 68.5873 86.543 68.5442C86.5553 68.5227 86.5646 68.506 86.5711 68.4943C86.5744 68.4885 86.5769 68.4839 86.5787 68.4806C86.5796 68.479 86.5803 68.4776 86.5809 68.4766C86.5812 68.4761 86.5814 68.4757 86.5816 68.4753C86.5817 68.4752 86.5818 68.475 86.5818 68.4749C86.5819 68.4748 86.5819 68.4748 86.5819 68.4747C86.5819 68.4747 86.582 68.4746 86.582 68.4746C86.582 68.4746 86.582 68.4746 86.582 68.4746C86.582 68.4746 86.582 68.4745 86.1426 68.2361C85.7031 67.9976 85.7031 67.9975 85.7031 67.9975C85.7031 67.9975 85.7031 67.9975 85.7031 67.9975C85.7031 67.9975 85.7032 67.9975 85.7032 67.9974C85.7032 67.9974 85.7032 67.9974 85.7032 67.9973C85.7032 67.9973 85.7033 67.9973 85.7033 67.9973C85.7033 67.9972 85.7032 67.9973 85.7032 67.9974C85.703 67.9977 85.7027 67.9983 85.7022 67.9992C85.7012 68.001 85.6995 68.0041 85.6971 68.0084C85.6923 68.0171 85.6846 68.0308 85.6741 68.0493C85.653 68.0863 85.6204 68.1427 85.5759 68.2171L86.434 68.7304Z" 
    fill="#7BA376"/>
    <path d="M47.0299 8.06537C59.6972 7.40361 70.1421 11.8154 77.4757 19.0948C90.5875 32.1095 91.0933 58.3595 77.4757 71.5948C67.2012 81.5807 57.4748 82.8448 47.0299 82.8448C47.0299 82.8448 57.6971 82.4036 65.253 76.6683C72.8089 70.933 77.2259 64.7173 79.698 58.3595C83.3863 48.8742 82.4981 40.0507 79.698 32.1095C77.0313 24.5465 71.4755 18.0887 65.253 14.0212C56.1415 8.06537 47.0299 8.06537 47.0299 8.06537Z" 
    fill="#3F5E3B"/>
    <path d="M77.4757 19.0948L77.828 18.7399L77.828 18.7399L77.4757 19.0948ZM47.0299 8.06537L47.0299 8.56537C46.7588 8.56537 46.5372 8.34939 46.5301 8.07842C46.523 7.80745 46.7331 7.58019 47.0038 7.56605L47.0299 8.06537ZM47.0299 82.8448V83.3448C46.7578 83.3448 46.5356 83.1271 46.53 82.8551C46.5244 82.583 46.7374 82.3564 47.0092 82.3452L47.0299 82.8448ZM77.4757 71.5948L77.8242 71.9533L77.8242 71.9533L77.4757 71.5948ZM79.698 32.1095L79.2265 32.2758L79.2265 32.2758L79.698 32.1095ZM79.698 58.3595L79.232 58.1783L79.232 58.1783L79.698 58.3595ZM65.253 14.0212L65.5265 13.6027L65.5265 13.6027L65.253 14.0212ZM65.253 76.6683L65.5553 77.0666L65.5553 77.0666L65.253 76.6683ZM77.1235 19.4496C69.8918 12.2715 59.5851 7.91015 47.056 8.56469L47.0038 7.56605C59.8093 6.89707 70.3923 11.3593 77.828 18.7399L77.1235 19.4496ZM47.0299 82.3448C52.2353 82.3448 57.2186 82.0289 62.168 80.4871C67.11 78.9476 72.0428 76.1778 77.1272 71.2362L77.8242 71.9533C72.6341 76.9977 67.5665 79.8529 62.4654 81.4419C57.3718 83.0286 52.2694 83.3448 47.0299 83.3448V82.3448ZM77.1272 71.2362C83.8164 64.7348 87.0618 55.0068 86.9992 45.2653C86.9367 35.5229 83.5658 25.8443 77.1235 19.4496L77.828 18.7399C84.4974 25.36 87.9354 35.3137 87.9992 45.2589C88.0631 55.2049 84.7525 65.2195 77.8242 71.9533L77.1272 71.2362ZM80.1696 31.9432C82.9991 39.968 83.9057 48.9182 80.164 58.5407L79.232 58.1783C82.8669 48.8303 81.9971 40.1334 79.2265 32.2758L80.1696 31.9432ZM47.0299 8.06537C47.0299 7.56537 47.0301 7.56537 47.0303 7.56537C47.0305 7.56537 47.0307 7.56537 47.031 7.56537C47.0315 7.56537 47.0321 7.56537 47.0329 7.56538C47.0344 7.56538 47.0365 7.56539 47.0391 7.5654C47.0444 7.56543 47.0519 7.56548 47.0615 7.56558C47.0808 7.56578 47.1087 7.56617 47.145 7.56694C47.2176 7.56847 47.3237 7.57149 47.461 7.57748C47.7356 7.58945 48.1354 7.61325 48.6424 7.6606C49.6564 7.75528 51.1003 7.9442 52.8311 8.32132C56.2912 9.07525 60.9076 10.5835 65.5265 13.6027L64.9794 14.4398C60.4869 11.5031 55.9917 10.0334 52.6182 9.29839C50.9321 8.93102 49.5287 8.74771 48.5495 8.65627C48.0599 8.61055 47.6767 8.58783 47.4174 8.57653C47.2878 8.57088 47.1893 8.56809 47.1239 8.56671C47.0913 8.56603 47.0669 8.56569 47.0511 8.56553C47.0433 8.56544 47.0375 8.56541 47.034 8.56539C47.0322 8.56538 47.031 8.56537 47.0303 8.56537C47.03 8.56537 47.0297 8.56537 47.0297 8.56537C47.0297 8.56537 47.0297 8.56537 47.0297 8.56537C47.0298 8.56537 47.0299 8.56537 47.0299 8.06537ZM65.5265 13.6027C71.8299 17.723 77.4621 24.2649 80.1696 31.9432L79.2265 32.2758C76.6004 24.8282 71.1211 18.4544 64.9794 14.4398L65.5265 13.6027ZM80.164 58.5407C77.6561 64.9905 73.1795 71.2794 65.5553 77.0666L64.9507 76.27C72.4383 70.5866 76.7957 64.444 79.232 58.1783L80.164 58.5407ZM65.5553 77.0666C61.698 79.9944 57.0652 81.5596 53.4196 82.3946C51.5931 82.813 50.0053 83.0502 48.8729 83.1828C48.3065 83.2492 47.8535 83.2894 47.5409 83.3132C47.3845 83.325 47.2633 83.3328 47.1805 83.3376C47.139 83.34 47.1072 83.3416 47.0854 83.3427C47.0745 83.3432 47.0662 83.3436 47.0603 83.3439C47.0574 83.344 47.0551 83.3441 47.0535 83.3442C47.0527 83.3442 47.052 83.3443 47.0516 83.3443C47.0513 83.3443 47.0511 83.3443 47.0509 83.3443C47.0507 83.3443 47.0506 83.3443 47.0299 82.8448C47.0092 82.3452 47.0092 82.3452 47.0091 82.3452C47.0092 82.3452 47.0092 82.3452 47.0092 82.3452C47.0094 82.3452 47.0097 82.3452 47.0102 82.3451C47.0112 82.3451 47.0128 82.345 47.015 82.3449C47.0195 82.3447 47.0265 82.3444 47.036 82.3439C47.0551 82.343 47.0841 82.3415 47.1226 82.3392C47.1998 82.3348 47.3151 82.3274 47.4652 82.316C47.7654 82.2932 48.2048 82.2542 48.7565 82.1896C49.8603 82.0603 51.4116 81.8287 53.1963 81.4199C56.7733 80.6005 61.252 79.0775 64.9507 76.27L65.5553 77.0666Z" 
    fill="#3F5E3B"/>

    <path fill-rule="evenodd" d="M67.475 33.3823C67.475 32.2778 66.5796 31.3823 65.475 31.3823L25.0287 31.3823C23.9241 31.3823 23.0287 32.2778 23.0287 33.3823V69.9706C23.0287 71.0751 23.9241 71.9706 25.0287 71.9706H28.3622V64.6912V54.1176C28.3622 53.0131 29.2577 52.1176 30.3622 52.1176H35.0292H39.2517C40.3562 52.1176 41.2517 53.0131 41.2517 54.1176V64.6912V71.9706H65.475C66.5796 71.9706 67.475 71.0751 67.475 69.9706V33.3823ZM49.0297 46.8235C47.9251 46.8235 47.0297 45.9281 47.0297 44.8235V43.0882C47.0297 41.9837 47.9251 41.0882 49.0297 41.0882H50.8077C51.9123 41.0882 52.8077 41.9837 52.8077 43.0882V44.8235C52.8077 45.9281 51.9123 46.8235 50.8077 46.8235H49.0297ZM47.0297 51.0294C47.0297 49.9248 47.9251 49.0294 49.0297 49.0294H50.8077C51.9123 49.0294 52.8077 49.9248 52.8077 51.0294V52.7647C52.8077 53.8693 51.9123 54.7647 50.8077 54.7647H49.0297C47.9251 54.7647 47.0297 53.8693 47.0297 52.7647V51.0294ZM57.0301 41.0882C55.9255 41.0882 55.0301 41.9837 55.0301 43.0882V44.8235C55.0301 45.9281 55.9255 46.8235 57.0301 46.8235H58.8081C59.9127 46.8235 60.8081 45.9281 60.8081 44.8235V43.0882C60.8081 41.9837 59.9127 41.0882 58.8081 41.0882H57.0301ZM57.0301 54.7647C55.9255 54.7647 55.0301 53.8693 55.0301 52.7647V52.1176V51.0294C55.0301 49.9248 55.9255 49.0294 57.0301 49.0294H58.8081C59.9127 49.0294 60.8081 49.9248 60.8081 51.0294V52.7647C60.8081 53.8693 59.9127 54.7647 58.8081 54.7647H57.0301Z"
    fill="#5A7A56"/>
    <path d="M39.0294 71.9706V64.6912V56.3235C39.0294 55.2189 38.1339 54.3235 37.0294 54.3235H32.5845C31.48 54.3235 30.5845 55.2189 30.5845 56.3235V64.6912V71.9706H39.0294Z"
    fill="#5A7A56"/>
    <g filter="url(#filter0_f_17_14)">
    <path d="M23 33H67.5V38H23V33Z" fill="black" fill-opacity="0.2"/>
    </g>
    <path d="M44.2688 11.1163C44.9821 10.5776 45.9663 10.5776 46.6796 11.1163L74.0084 31.757C75.5394 32.9133 74.7216 35.353 72.803 35.353H18.1454C16.2268 35.353 15.409 32.9133 16.94 31.757L44.2688 11.1163Z" 
    fill="#7BA376"/>

    <defs>
      <filter id="filter0_f_17_14" x="19" y="29" width="52.5" height="13" filterUnits="userSpaceOnUse" color-interpolation-filters="sRGB">
        <feFlood flood-opacity="0" result="BackgroundImageFix"/>
        <feBlend mode="normal" in="SourceGraphic" in2="BackgroundImageFix" result="shape"/>
        <feGaussianBlur stdDeviation="2" result="effect1_foregroundBlur_17_14"/>
      </filter>
    </defs>
    
  </symbol>
</svg>