<svg width="128" height="135" viewBox="0 0 128 135" fill="none" xmlns="http://www.w3.org/2000/svg">
<path d="M28.4651 13.4812C51.7001 -3.59677 98.1284 -7.90647 124.101 31.6232C124.965 32.875 125.372 33.6189 125.372 33.6189C124.954 32.9416 124.531 32.2765 124.101 31.6232C121.143 27.3328 112.833 17.0759 97.2378 10.3563C80.5657 3.17283 50.2538 2.18161 28.4651 26.3277C10.6066 46.1183 4.63943 79.797 28.4651 108.615C46.1793 130.041 79.5136 132.778 98.2798 123.892C116.199 115.407 123.875 103.509 125.171 101.327C125.238 101.21 125.305 101.093 125.372 100.976C125.372 100.976 125.306 101.098 125.171 101.327C108.007 130.958 64.1005 146.406 28.4651 121.114C-6.26848 96.4627 -9.99422 41.7492 28.4651 13.4812Z" fill="#7BA376"/>
<path d="M28.4651 13.4812L28.7612 13.8841L28.7612 13.8841L28.4651 13.4812ZM125.372 33.6189L124.947 33.8815C125.089 34.1122 125.389 34.1875 125.624 34.0511C125.858 33.9148 125.941 33.6165 125.811 33.3787L125.372 33.6189ZM125.372 100.976L125.812 101.213C125.942 100.972 125.854 100.672 125.614 100.539C125.375 100.406 125.073 100.491 124.938 100.729L125.372 100.976ZM28.4651 121.114L28.7545 120.706L28.7545 120.706L28.4651 121.114ZM28.4651 26.3277L28.8363 26.6627L28.8363 26.6627L28.4651 26.3277ZM28.4651 108.615L28.0797 108.933L28.0797 108.933L28.4651 108.615ZM97.2378 10.3563L97.4357 9.89715L97.4357 9.89715L97.2378 10.3563ZM98.2798 123.892L98.0659 123.44L98.0659 123.44L98.2798 123.892ZM28.7612 13.8841C40.2782 5.419 57.571 0.104728 75.2081 1.82199C92.8265 3.53743 110.786 12.2682 123.684 31.8978L124.519 31.3487C111.444 11.4485 93.2027 2.56933 75.305 0.826693C57.4259 -0.91413 39.887 4.46544 28.169 13.0783L28.7612 13.8841ZM123.684 31.8978C124.11 32.547 124.531 33.2082 124.947 33.8815L125.798 33.3564C125.377 32.6751 124.951 32.0059 124.519 31.3487L123.684 31.8978ZM124.938 100.729C124.872 100.845 124.805 100.961 124.738 101.077L125.603 101.578C125.671 101.46 125.739 101.342 125.806 101.224L124.938 100.729ZM124.738 101.077C107.706 130.48 64.125 145.81 28.7545 120.706L28.1757 121.522C64.076 147.001 108.307 131.436 125.603 101.578L124.738 101.077ZM28.7545 120.706C-5.7148 96.2426 -9.41009 41.9404 28.7612 13.8841L28.169 13.0783C-10.5783 41.558 -6.82217 96.6829 28.1757 121.522L28.7545 120.706ZM28.0939 25.9927C10.0871 45.9477 4.07958 79.9045 28.0797 108.933L28.8504 108.296C5.19929 79.6894 11.1262 46.2889 28.8363 26.6627L28.0939 25.9927ZM125.372 33.6189C125.811 33.3787 125.811 33.3787 125.811 33.3786C125.811 33.3786 125.811 33.3786 125.811 33.3785C125.81 33.3784 125.81 33.3784 125.81 33.3783C125.81 33.3781 125.81 33.3778 125.81 33.3775C125.81 33.377 125.809 33.3762 125.809 33.3753C125.808 33.3734 125.806 33.3708 125.804 33.3675C125.801 33.3609 125.795 33.3515 125.789 33.3392C125.775 33.3147 125.755 33.2791 125.728 33.2327C125.674 33.1399 125.594 33.0042 125.487 32.8293C125.273 32.4796 124.95 31.9731 124.513 31.3394L123.69 31.9071C124.116 32.5251 124.429 33.0165 124.634 33.3517C124.737 33.5193 124.813 33.6478 124.862 33.7336C124.887 33.7765 124.905 33.8088 124.917 33.8298C124.923 33.8404 124.927 33.8481 124.93 33.853C124.932 33.8555 124.933 33.8572 124.933 33.8583C124.933 33.8588 124.934 33.8591 124.934 33.8593C124.934 33.8593 124.934 33.8594 124.934 33.8593C124.934 33.8593 124.934 33.8593 124.934 33.8593C124.934 33.8593 124.934 33.8592 124.934 33.8592C124.934 33.8592 124.934 33.8592 125.372 33.6189ZM124.513 31.3394C121.52 26.9984 113.143 16.665 97.4357 9.89715L97.04 10.8155C112.523 17.4868 120.766 27.6671 123.69 31.9071L124.513 31.3394ZM97.4357 9.89715C80.6179 2.65088 50.0601 1.64993 28.0939 25.9927L28.8363 26.6627C50.4475 2.71329 80.5135 3.69479 97.04 10.8155L97.4357 9.89715ZM28.0797 108.933C37.0295 119.759 49.9099 125.846 62.892 128.113C75.8687 130.379 89.0015 128.838 98.4938 124.344L98.0659 123.44C88.792 127.831 75.8746 129.365 63.064 127.128C50.2588 124.891 37.6149 118.897 28.8504 108.296L28.0797 108.933ZM98.4938 124.344C116.529 115.804 124.271 103.821 125.6 101.582L124.741 101.072C123.478 103.198 115.869 115.01 98.0659 123.44L98.4938 124.344ZM125.6 101.582C125.67 101.465 125.722 101.374 125.758 101.312C125.775 101.281 125.788 101.257 125.797 101.241C125.802 101.232 125.806 101.226 125.808 101.221C125.809 101.219 125.81 101.217 125.811 101.216C125.811 101.215 125.812 101.215 125.812 101.214C125.812 101.214 125.812 101.214 125.812 101.214C125.812 101.214 125.812 101.214 125.812 101.214C125.812 101.214 125.812 101.214 125.812 101.213C125.812 101.213 125.812 101.213 125.812 101.213C125.812 101.213 125.812 101.213 125.372 100.976C124.932 100.739 124.932 100.739 124.932 100.739C124.932 100.739 124.932 100.739 124.932 100.739C124.932 100.739 124.932 100.739 124.932 100.739C124.932 100.739 124.932 100.739 124.932 100.739C124.932 100.739 124.932 100.739 124.932 100.739C124.932 100.739 124.932 100.739 124.932 100.74C124.931 100.74 124.931 100.741 124.93 100.743C124.928 100.746 124.926 100.751 124.922 100.757C124.914 100.771 124.903 100.792 124.887 100.82C124.855 100.876 124.807 100.961 124.741 101.072L125.6 101.582Z" fill="#7BA376"/>
<path d="M68.0698 12.1662C86.628 11.1895 101.93 17.7011 112.675 28.4453C131.884 47.6546 132.625 86.3988 112.674 105.934C97.6218 120.673 83.3721 122.538 68.0698 122.538C68.0698 122.538 83.6977 121.887 94.7675 113.422C105.837 104.957 112.308 95.7827 115.93 86.3989C121.334 72.3989 120.033 59.3756 115.93 47.6546C112.023 36.4919 103.884 26.9603 94.7675 20.9569C81.4187 12.1662 68.0698 12.1662 68.0698 12.1662Z" fill="#3F5E3B"/>
<path d="M112.675 28.4453L113.028 28.0917L113.028 28.0917L112.675 28.4453ZM68.0698 12.1662L68.0698 12.6662C67.7987 12.6662 67.5771 12.4503 67.5699 12.1794C67.5628 11.9085 67.7728 11.6812 68.0435 11.6669L68.0698 12.1662ZM68.0698 122.538V123.038C67.7977 123.038 67.5755 122.821 67.5699 122.549C67.5642 122.277 67.7771 122.05 68.0489 122.039L68.0698 122.538ZM112.674 105.934L113.024 106.291L113.024 106.291L112.674 105.934ZM115.93 47.6546L115.458 47.8198L115.458 47.8198L115.93 47.6546ZM115.93 86.3989L115.464 86.2188L115.464 86.2188L115.93 86.3989ZM94.7675 20.9569L94.4925 21.3745L94.4925 21.3745L94.7675 20.9569ZM94.7675 113.422L95.0712 113.819L95.0712 113.819L94.7675 113.422ZM112.321 28.7988C101.678 18.1564 86.5149 11.6961 68.096 12.6655L68.0435 11.6669C86.7412 10.6828 102.182 17.2459 113.028 28.0917L112.321 28.7988ZM68.0698 122.038C75.7038 122.038 83.0318 121.572 90.316 119.286C97.5929 117.002 104.851 112.894 112.325 105.576L113.024 106.291C105.445 113.712 98.0522 117.906 90.6155 120.24C83.1861 122.572 75.7381 123.038 68.0698 123.038V122.038ZM112.325 105.576C122.181 95.9254 126.951 81.4985 126.859 67.0706C126.768 52.6419 121.813 38.2906 112.321 28.7988L113.028 28.0917C122.746 37.8093 127.766 52.4348 127.859 67.0642C127.953 81.6945 123.118 96.4071 113.024 106.291L112.325 105.576ZM116.402 47.4895C120.534 59.2935 121.853 72.4425 116.397 86.5789L115.464 86.2188C120.815 72.3552 119.532 59.4577 115.458 47.8198L116.402 47.4895ZM68.0698 12.1662C68.0698 11.6662 68.07 11.6662 68.0702 11.6662C68.0704 11.6662 68.0707 11.6662 68.071 11.6662C68.0716 11.6662 68.0725 11.6662 68.0735 11.6662C68.0755 11.6662 68.0784 11.6663 68.0821 11.6663C68.0894 11.6663 68.1 11.6664 68.1137 11.6665C68.1411 11.6668 68.1812 11.6674 68.2335 11.6685C68.3382 11.6707 68.4919 11.6751 68.6913 11.6839C69.0902 11.7014 69.6721 11.7363 70.4109 11.8058C71.8884 11.9448 73.9946 12.2223 76.52 12.7767C81.5695 13.8851 88.3048 16.1023 95.0425 20.5393L94.4925 21.3745C87.8814 17.0209 81.2678 14.8427 76.3056 13.7534C73.8252 13.209 71.7598 12.9371 70.3173 12.8014C69.5961 12.7335 69.0308 12.6998 68.6475 12.6829C68.4558 12.6745 68.3097 12.6703 68.2123 12.6683C68.1636 12.6672 68.1271 12.6667 68.1032 12.6665C68.0913 12.6664 68.0825 12.6663 68.0769 12.6663C68.0741 12.6662 68.0721 12.6662 68.0709 12.6662C68.0703 12.6662 68.0699 12.6662 68.0697 12.6662C68.0696 12.6662 68.0696 12.6662 68.0696 12.6662C68.0696 12.6662 68.0698 12.6662 68.0698 12.1662ZM95.0425 20.5393C104.24 26.5961 112.455 36.212 116.402 47.4895L115.458 47.8198C111.592 36.7719 103.528 27.3246 94.4925 21.3745L95.0425 20.5393ZM116.397 86.5789C112.74 96.0544 106.209 105.302 95.0712 113.819L94.4638 113.025C105.465 104.612 111.877 95.511 115.464 86.2188L116.397 86.5789ZM95.0712 113.819C89.457 118.112 82.7053 120.413 77.3799 121.642C74.7135 122.257 72.3957 122.606 70.7432 122.801C69.9168 122.898 69.2562 122.958 68.801 122.992C68.5734 123.01 68.3971 123.021 68.2771 123.028C68.2171 123.032 68.1711 123.034 68.1398 123.036C68.1242 123.036 68.1122 123.037 68.104 123.037C68.0998 123.037 68.0967 123.038 68.0944 123.038C68.0933 123.038 68.0924 123.038 68.0918 123.038C68.0915 123.038 68.0912 123.038 68.091 123.038C68.0908 123.038 68.0906 123.038 68.0698 122.538C68.0489 122.039 68.0489 122.039 68.0489 122.039C68.0489 122.039 68.049 122.039 68.0492 122.039C68.0495 122.039 68.05 122.039 68.0508 122.039C68.0524 122.039 68.0549 122.039 68.0583 122.038C68.0652 122.038 68.0758 122.038 68.09 122.037C68.1186 122.035 68.1617 122.033 68.2188 122.03C68.3331 122.023 68.5034 122.012 68.7248 121.995C69.1675 121.961 69.8143 121.904 70.626 121.808C72.2497 121.616 74.5307 121.273 77.155 120.667C82.4111 119.454 89.0083 117.197 94.4638 113.025L95.0712 113.819Z" fill="#3F5E3B"/>
<path fill-rule="evenodd" clip-rule="evenodd" d="M98.0233 48.5814C98.0233 47.4768 97.1278 46.5814 96.0233 46.5814L34.907 46.5814C33.8024 46.5814 32.907 47.4768 32.907 48.5814V104.488C32.907 105.593 33.8024 106.488 34.907 106.488H40.7209V95.7442V79.1861C40.7209 78.0815 41.6164 77.1861 42.7209 77.1861H50.4884H57.6047C58.7092 77.1861 59.6047 78.0815 59.6047 79.1861V95.7442V106.488H96.0233C97.1278 106.488 98.0233 105.593 98.0233 104.488V48.5814ZM70.0698 69.3721C68.9652 69.3721 68.0698 68.4767 68.0698 67.3721V62.907C68.0698 61.8024 68.9652 60.907 70.0698 60.907H74.5349C75.6395 60.907 76.5349 61.8024 76.5349 62.907V67.3721C76.5349 68.4767 75.6395 69.3721 74.5349 69.3721H70.0698ZM68.0698 74.6279C68.0698 73.5233 68.9652 72.6279 70.0698 72.6279H74.5349C75.6395 72.6279 76.5349 73.5233 76.5349 74.6279V79.093C76.5349 80.1976 75.6395 81.093 74.5349 81.093H70.0698C68.9652 81.093 68.0698 80.1976 68.0698 79.093V74.6279ZM81.7907 60.907C80.6861 60.907 79.7907 61.8024 79.7907 62.907V67.3721C79.7907 68.4767 80.6861 69.3721 81.7907 69.3721H86.2558C87.3604 69.3721 88.2558 68.4767 88.2558 67.3721V62.907C88.2558 61.8024 87.3604 60.907 86.2558 60.907H81.7907ZM81.7907 81.093C80.6861 81.093 79.7907 80.1976 79.7907 79.093V77.1861V74.6279C79.7907 73.5233 80.6861 72.6279 81.7907 72.6279H86.2558C87.3604 72.6279 88.2558 73.5233 88.2558 74.6279V79.093C88.2558 80.1976 87.3604 81.093 86.2558 81.093H81.7907Z" fill="url(#paint0_linear_17_14)"/>
<path d="M56.3488 106.488V95.7442V82.4419C56.3488 81.3373 55.4534 80.4419 54.3488 80.4419H45.9767C44.8722 80.4419 43.9768 81.3373 43.9768 82.4419V95.7442V106.488H56.3488Z" fill="url(#paint1_linear_17_14)"/>
<path d="M64.5796 16.2471C65.2952 15.7026 66.2862 15.7026 67.0018 16.2471L109.85 48.8502C111.374 50.0098 110.554 52.4419 108.639 52.4419H22.9426C21.0276 52.4419 20.2076 50.0098 21.7316 48.8502L64.5796 16.2471Z" fill="#7BA376"/>
<defs>
<linearGradient id="paint0_linear_17_14" x1="65.4651" y1="46.5814" x2="65.4651" y2="106.488" gradientUnits="userSpaceOnUse">
<stop offset="0.06" stop-color="#3F5E3B"/>
<stop offset="0.23" stop-color="#5A7A56"/>
<stop offset="1" stop-color="#597955"/>
</linearGradient>
<linearGradient id="paint1_linear_17_14" x1="65.4651" y1="46.5814" x2="65.4651" y2="106.488" gradientUnits="userSpaceOnUse">
<stop offset="0.06" stop-color="#3F5E3B"/>
<stop offset="0.23" stop-color="#5A7A56"/>
<stop offset="1" stop-color="#597955"/>
</linearGradient>
</defs>
</svg>
